<svg xmlns="http://www.w3.org/2000/svg" width="126" height="36"><path d="M7.323 18.314L3.455 27H.634l4.248-9.288a6.042 6.042 0 0 1-2.41-2.235c-.612-.983-.919-2.32-.919-4.01 0-1.183.175-2.224.523-3.122.35-.899.825-1.644 1.427-2.235A5.865 5.865 0 0 1 5.61 4.778a7.277 7.277 0 0 1 2.536-.444h3.645V27h-2.44v-8.686h-2.03zM9.352 6.395h-1.3c-.486 0-.962.09-1.427.27-.465.18-.877.464-1.236.855-.36.391-.65.91-.872 1.554-.222.644-.333 1.442-.333 2.393 0 .909.1 1.67.302 2.282.2.613.475 1.11.824 1.49.348.38.76.65 1.236.809a4.73 4.73 0 0 0 1.506.237h1.3v-9.89zm26.913 23.743h-2.22V27H27.2v3.138h-2.22v-5.167h.983c.36-.845.645-1.78.856-2.805.212-1.025.375-2.082.492-3.17.116-1.089.19-2.198.221-3.329.032-1.13.048-2.224.048-3.28v-1.364h7.418v13.948h1.268v5.167zm10.746-4.216a6.035 6.035 0 0 1-1.743.951c-.656.233-1.385.349-2.188.349-1.648 0-2.948-.64-3.899-1.918-.95-1.279-1.426-3.154-1.426-5.627 0-1.289.09-2.472.27-3.55.179-1.078.464-2.013.855-2.806.391-.792.893-1.41 1.506-1.854.613-.444 1.342-.666 2.187-.666.655 0 1.258.132 1.807.397.55.264 1.014.692 1.395 1.283.38.592.676 1.358.887 2.299.212.94.317 2.087.317 3.44v1.362h-6.657c0 1.818.249 3.191.745 4.121.497.93 1.242 1.395 2.235 1.395.698 0 1.316-.122 1.855-.365.539-.243.966-.48 1.284-.713l.57 1.902zM23.553 11.023V27h-2.44v-7.164h-3.678V27h-2.473V11.023h2.473v6.784h3.677v-6.784h2.441zm28.435 8.02V27h-2.473V11.023h2.473v7.386l3.836-7.386h2.504l-3.962 7.513L58.899 27h-2.695l-4.216-7.957zM64.7 27.222c-1.712 0-3.054-.682-4.026-2.045s-1.458-3.418-1.458-6.165c0-1.247.121-2.378.364-3.392.243-1.015.602-1.876 1.078-2.584a5.082 5.082 0 0 1 1.775-1.648c.708-.391 1.527-.587 2.457-.587.718 0 1.3.08 1.743.238.444.159.846.354 1.205.586l-.349 2.346a5.374 5.374 0 0 0-1.188-.776 3.245 3.245 0 0 0-1.443-.333c-.887 0-1.616.496-2.187 1.49-.57.993-.856 2.504-.856 4.533 0 2.007.238 3.555.713 4.644.476 1.088 1.22 1.632 2.235 1.632.613 0 1.141-.1 1.585-.3a4.686 4.686 0 0 0 1.11-.682l.57 1.838c-.422.36-.898.65-1.426.872-.529.222-1.163.333-1.902.333zM32.556 13.02h-2.758v.286c0 .845-.016 1.77-.048 2.773a43.73 43.73 0 0 1-.206 3.06 36.122 36.122 0 0 1-.443 3.058 14.953 14.953 0 0 1-.793 2.774h4.248v-11.95zm10.017-.19c-.76 0-1.3.428-1.617 1.284-.317.856-.517 2.002-.602 3.44h4.09c0-.677-.032-1.306-.096-1.887a7.57 7.57 0 0 0-.3-1.506c-.138-.422-.328-.75-.571-.982a1.256 1.256 0 0 0-.904-.349zm35.06 14.487c-.887 0-1.67-.17-2.345-.507-.677-.338-1.173-.687-1.49-1.046l.539-1.459c.486.487.961.846 1.426 1.078.465.233 1.078.349 1.839.349 1.416 0 2.504-.835 3.265-2.504.76-1.67 1.183-3.984 1.268-6.943h-5.58v-1.553h5.58c-.043-2.895-.412-5.146-1.11-6.752-.697-1.606-1.67-2.41-2.916-2.41a3.8 3.8 0 0 0-1.855.46 3.92 3.92 0 0 0-1.379 1.253l-.538-1.712c.359-.402.85-.761 1.474-1.078.623-.317 1.39-.476 2.298-.476.972 0 1.823.265 2.552.793.729.528 1.342 1.279 1.838 2.25.497.973.867 2.156 1.11 3.551.243 1.395.364 2.948.364 4.66 0 3.867-.544 6.842-1.632 8.924-1.089 2.081-2.658 3.122-4.708 3.122zm14.456 4.628v-4.723a5.573 5.573 0 0 1-2.283-.618 5.79 5.79 0 0 1-1.886-1.57c-.539-.676-.962-1.516-1.268-2.52-.306-1.003-.46-2.171-.46-3.502 0-1.332.159-2.5.476-3.503.317-1.004.745-1.85 1.284-2.536.539-.687 1.162-1.21 1.87-1.57a5.604 5.604 0 0 1 2.267-.602V5.285h1.838v5.516a5.52 5.52 0 0 1 2.25.618 5.79 5.79 0 0 1 1.887 1.57c.539.676.967 1.516 1.284 2.52.317 1.004.475 2.171.475 3.503 0 1.331-.158 2.499-.475 3.502-.317 1.004-.745 1.85-1.284 2.536a5.553 5.553 0 0 1-1.886 1.57 5.672 5.672 0 0 1-2.25.602v4.723h-1.84zm-4.121-12.933c0 1.099.11 2.055.332 2.868.222.814.523 1.5.904 2.06.38.561.819.989 1.315 1.285.497.296 1.02.475 1.57.539V12.29a3.609 3.609 0 0 0-1.601.507c-.497.296-.93.724-1.3 1.284s-.666 1.247-.888 2.06c-.222.814-.332 1.77-.332 2.87zm10.08 0c0-1.1-.11-2.066-.333-2.901-.222-.835-.523-1.532-.903-2.092s-.82-.988-1.316-1.284a3.02 3.02 0 0 0-1.569-.444v13.473a3.945 3.945 0 0 0 1.601-.54c.497-.295.93-.723 1.3-1.283.37-.56.665-1.247.887-2.06.222-.814.333-1.77.333-2.87zm11.824-2.41c0-.465.01-.898.032-1.3.021-.4.053-.792.095-1.172h-.127c-.105.36-.227.729-.364 1.11-.138.38-.312.781-.523 1.204L104.103 27h-1.522V11.023h1.649v10.24c0 1.014-.064 1.901-.19 2.662h.126c.17-.401.333-.814.492-1.236.158-.423.332-.846.523-1.268l4.818-10.398h1.553V27h-1.68V16.602zm9.954 9.257c.951 0 1.707-.592 2.267-1.775.56-1.184.84-2.99.84-5.421 0-2.029-.243-3.603-.73-4.723-.486-1.12-1.151-1.68-1.997-1.68-.359 0-.702.09-1.03.269-.327.18-.634.417-.92.713-.284.296-.543.64-.776 1.03a8.724 8.724 0 0 0-.602 1.22v8.433c.317.655.708 1.141 1.173 1.458.465.317 1.056.476 1.775.476zm-.032 1.426a3.65 3.65 0 0 1-1.711-.396c-.508-.264-.91-.597-1.205-.998v6.054h-1.744V11.023h1.554l.127 2.631a7.408 7.408 0 0 1 1.426-2.044c.592-.603 1.331-.904 2.219-.904.655 0 1.247.19 1.775.57.529.381.972.915 1.332 1.602.359.686.634 1.51.824 2.472.19.962.285 2.024.285 3.186 0 2.938-.449 5.13-1.347 6.578-.898 1.447-2.076 2.171-3.535 2.171z" fill="#FFF" fill-rule="evenodd"/></svg>