<svg width="24" height="24" viewBox="0 0 24 24" fill="none" xmlns="http://www.w3.org/2000/svg">
<path fill-rule="evenodd" clip-rule="evenodd" d="M9.5 17C11.2105 17 12.7873 16.4274 14.0491 15.4633L18.7929 20.2071C19.1834 20.5976 19.8166 20.5976 20.2071 20.2071C20.5976 19.8166 20.5976 19.1834 20.2071 18.7929L15.4633 14.0491C16.4274 12.7873 17 11.2105 17 9.5C17 5.35786 13.6421 2 9.5 2C5.35786 2 2 5.35786 2 9.5C2 13.6421 5.35786 17 9.5 17ZM15 9.5C15 12.5376 12.5376 15 9.5 15C6.46243 15 4 12.5376 4 9.5C4 6.46243 6.46243 4 9.5 4C12.5376 4 15 6.46243 15 9.5Z" fill="white"/>
</svg>
